name 900006_25rea_lsw
datacolumns 54
datarows 8
range 1.2733300000000005 1.3573300000000006
cursor 1.0 1.0 0.0
keys m_key
wrap
enforce_loops no
enforce_constraints no
calc_derivatives 0.012000
event_color 1.000000 0.000000 1.000000
endheader

time	calcn_r_tx	calcn_r_ty	calcn_r_tz	calcn_r_r1	calcn_r_r2	calcn_r_r3	calcn_l_tx	calcn_l_ty	calcn_l_tz	calcn_l_r1	calcn_l_r2	calcn_l_r3	pelvis_tz	pelvis_tx	pelvis_ty	pelvis_tilt	pelvis_list	pelvis_rotation	hip_flexion_r	hip_adduction_r	hip_rotation_r	knee_angle_r	ankle_angle_r	subtalar_angle_r	mtp_angle_r	hip_flexion_l	hip_adduction_l	hip_rotation_l	knee_angle_l	ankle_angle_l	subtalar_angle_l	mtp_angle_l	lumbar_extension	lumbar_bending	lumbar_rotation	ground_force_px	ground_force_py	ground_force_pz	ground_force_vx	ground_force_vy	ground_force_vz	ground_force_px	ground_force_py	ground_force_pz	ground_force_vx	ground_force_vy	ground_force_vz	ground_torque_x	ground_torque_y	ground_torque_z	ground_torque_x	ground_torque_y	ground_torque_z	
      1.2733300000000005	     -1.6183816669840516	      0.0358838470533766	      0.3276316429219318	      2.5691550566572658	     -9.8231517671856601	     -2.8688275527880274	     -1.3247730845600405	      0.0527053941072599	      0.2228563307258713	     -0.5349239908377109	     -0.5259083905952418	      4.2118499510332628	      0.3185595474279724	     -1.3953714086526670	      0.8287140845933585	      1.9506865995547473	      2.4739535498417711	     -6.1406754826590637	     -5.1152880340240650	      1.4043453575279687	     -1.9803093374754470	    -10.3217626736592880	     10.9194252594310370	      0.0000000000000000	      0.0000000000000000	     20.6344285872583410	      0.7480817858695781	     -5.9002513892995490	    -16.0063323761213350	     -2.2013206368415905	      0.0000000000000000	      0.0000000000000000	     -8.5470260359275869	      1.1158381258823939	     -0.5777188764664987	     -1.4805723916048497	      0.0000000000000000	      0.3419708079131462	      0.4587093043295508	    441.2640422163760800	    -14.2374341738505060	     -1.8780849311651129	      0.0000000000000000	      0.2271225613260118	      0.0000000000000000	     -0.0000000000000000	     -0.0000000000000000	      0.0000000000000000	      1.0034968832084108	      0.0000000000000000	      0.0000000000000000	     -0.0000000000000000	      0.0000000000000000	
      1.2853300000000005	     -1.6182005252581844	      0.0362304592522466	      0.3270184731183388	      2.3608098581624528	    -10.3657652675917370	     -3.2535339254161020	     -1.3067480184633056	      0.0524757622856056	      0.2239265711910769	     -0.6473087449940097	     -0.8000549538923144	      4.8611677679554059	      0.3189264217830267	     -1.3884240154294101	      0.8275052354425856	      1.8928585779239022	      2.4544384811249871	     -6.5746514539544663	     -5.3220440109606590	      1.2919484802552441	     -2.0377007802742653	    -10.8099939839282690	     11.3236373696963870	      0.0000000000000000	      0.0000000000000000	     20.7255968252955820	      0.7125706226462800	     -5.8907708852356100	    -14.3673006262706440	     -3.2246614858113216	      0.0000000000000000	      0.0000000000000000	     -8.3143362763639921	      1.1850293486057757	      0.0772031750057247	     -1.4766525260159222	      0.0000000000000000	      0.3423469602000169	      0.9756113571912795	    441.1645279540755400	    -14.7028326685870940	     -1.8761813198887745	      0.0000000000000000	      0.2277944106933389	      0.0000000000000000	      0.0000000000000000	     -0.0000000000000000	      0.0000000000000000	      0.9137596003149977	      0.0000000000000000	      0.0000000000000000	     -0.0000000000000000	      0.0000000000000000	
      1.2973300000000005	     -1.6179399928139346	      0.0366653412568127	      0.3263384134549938	      2.1380479364462599	    -10.9144447062249060	     -3.6670002037002964	     -1.2898255190708274	      0.0522043363709056	      0.2250118442563444	     -0.7208426241174351	     -1.1783180120443624	      5.6116135623908168	      0.3191899635719708	     -1.3813561649988899	      0.8262918863201615	      1.8397250862375827	      2.4334390052886183	     -7.0025044150410114	     -5.5332911708966330	      1.1692901499878039	     -2.1133056357617801	    -11.3076681526852600	     11.7130996893637690	      0.0000000000000000	      0.0000000000000000	     20.7794974129674730	      0.6935773959211491	     -5.8216696447135101	    -12.8747122831986380	     -3.9598841573111372	      0.0000000000000000	      0.0000000000000000	     -8.0668120704799406	      1.2754908989385352	      0.7219638694917294	     -1.4727655092710723	      0.0000000000000000	      0.3427005854468742	      1.5949130935039220	    440.8114031377376100	    -15.0225106704772120	     -1.8742062386101062	      0.0000000000000000	      0.2284785737448086	     -0.0000000000000000	      0.0000000000000000	      0.0000000000000000	      0.0000000000000000	      0.8494906905856813	      0.0000000000000000	      0.0000000000000000	      0.0000000000000000	      0.0000000000000000	
      1.3093300000000005	     -1.6175596069815632	      0.0371850397640160	      0.3256164060695262	      1.9165672998566903	    -11.4085598857105950	     -4.1049424382243203	     -1.2740245385346121	      0.0517991572365191	      0.2260626351248635	     -0.7470775381963811	     -1.6489219225608287	      6.4864161527090838	      0.3193338633736927	     -1.3741566410578019	      0.8250638530968929	      1.7834597925729645	      2.4101561864182028	     -7.3866786498169335	     -5.7500003804803184	      1.0524682936969116	     -2.1834259376459229	    -11.7982172123237290	     12.0810277719658200	      0.0000000000000000	      0.0000000000000000	     20.8081570539960160	      0.6948236627585285	     -5.6694813930507610	    -11.5372607860077870	     -4.3810860155120688	      0.0000000000000000	      0.0000000000000000	     -7.7936951686014524	      1.3856233745367939	      1.2916838750648469	     -1.4690185760579626	      0.0000000000000000	      0.3429945539295638	      2.5718302048944679	    440.5610908261133400	    -15.2702998500259020	     -1.8721239384670636	      0.0000000000000000	      0.2291356232410791	      0.0000000000000000	     -0.0000000000000000	     -0.0000000000000000	      0.0000000000000000	      0.8021165850253066	      0.0000000000000000	      0.0000000000000000	     -0.0000000000000000	      0.0000000000000000	
      1.3213300000000006	     -1.6170171100624615	      0.0377773942070080	      0.3248842937651995	      1.7067891533409800	    -11.8145393666998650	     -4.5583384116363828	     -1.2593296620215559	      0.0512110187396029	      0.2270173999921026	     -0.7217384357897072	     -2.1998708671959437	      7.4660854448397638	      0.3193651538034590	     -1.3668273511065305	      0.8238112182815230	      1.7158660604288531	      2.3827943173347483	     -7.7146589840342426	     -5.9659828905787906	      0.9525047700818425	     -2.2256496861999198	    -12.2722056698774140	     12.4257462203829880	      0.0000000000000000	      0.0000000000000000	     20.8220350157794090	      0.7109008816078257	     -5.4252134148962341	    -10.3537972517284430	     -4.5142900326633892	      0.0000000000000000	      0.0000000000000000	     -7.4869742879288896	      1.5145271932046849	      1.7582558542050886	     -1.4656061247960706	      0.0000000000000000	      0.3431856497052984	      4.0920664054330604	    440.8768016071352300	    -15.4782606674501140	     -1.8699902662899579	      0.0000000000000000	      0.2297861448264149	     -0.0000000000000000	      0.0000000000000000	      0.0000000000000000	      0.0000000000000000	      0.7718925638170425	      0.0000000000000000	      0.0000000000000000	      0.0000000000000000	      0.0000000000000000	
      1.3333300000000006	     -1.6162940665694716	      0.0384309388706501	      0.3241630230558902	      1.5088847977976325	    -12.1400712350893230	     -5.0182613278724206	     -1.2456961067635113	      0.0504251710060331	      0.2278214270754094	     -0.6449707918359255	     -2.8244902137116856	      8.4952255467660382	      0.3193185438445482	     -1.3593758142795618	      0.8225314757934813	      1.6317574499255079	      2.3490854406278578	     -8.0091526114700038	     -6.1722351275814562	      0.8699358601467686	     -2.2236866080101461	    -12.7291062924929470	     12.7504401933769120	      0.0000000000000000	      0.0000000000000000	     20.8230336818816220	      0.7269864411012804	     -5.1010997156225866	     -9.3112781444276713	     -4.4281188850973807	      0.0000000000000000	      0.0000000000000000	     -7.1435594874693482	      1.6627961217312812	      2.1483263100944368	     -1.4626412062142655	      0.0000000000000000	      0.3432564547599951	      6.1858103965587166	    442.2054698378010500	    -15.6822365911908240	     -1.8677993401267079	      0.0000000000000000	      0.2304404804600941	     -0.0000000000000000	      0.0000000000000000	      0.0000000000000000	      0.0000000000000000	      0.7522885830300085	      0.0000000000000000	      0.0000000000000000	      0.0000000000000000	      0.0000000000000000	
      1.3453300000000006	     -1.6154097225794481	      0.0391499864166611	      0.3234621432556907	      1.3168090987045029	    -12.4107010759020260	     -5.4841712922780772	     -1.2330901781929089	      0.0494447702482247	      0.2284603348393927	     -0.5257423152873326	     -3.5083287516331958	      9.5026873956023383	      0.3192348697684908	     -1.3517998367193946	      0.8212346917490470	      1.5317717850490398	      2.3090967625709746	     -8.3063305703092816	     -6.3646768142615482	      0.7962423187186234	     -2.1669883228981681	    -13.1752517278220370	     13.0578243167166010	      0.0000000000000000	      0.0000000000000000	     20.8017163472204450	      0.7296399143694236	     -4.7304331648922178	     -8.3895983807307957	     -4.2076158673894213	      0.0000000000000000	      0.0000000000000000	     -6.7646947238041486	      1.8298257040992187	      2.5102340881054239	     -1.4600632109893972	      0.0000000000000000	      0.3432161712074460	      8.6434015497057093	    444.5194005806662300	    -15.9152146281859570	     -1.8654538882537632	      0.0000000000000000	      0.2310420197320386	      0.0000000000000000	     -0.0000000000000000	     -0.0000000000000000	      0.0000000000000000	      0.7397677890661917	      0.0000000000000000	      0.0000000000000000	     -0.0000000000000000	      0.0000000000000000	
      1.3573300000000006	     -1.6144045424769988	      0.0399567240151964	      0.3227777321481292	      1.1242464785236339	    -12.6484827399055180	     -5.9634897228318984	     -1.2215183738453321	      0.0482771184699395	      0.2289714958607255	     -0.3826659026683326	     -4.2234958330357744	     10.4202650866767640	      0.3191413725619943	     -1.3440846466289873	      0.8199436369625194	      1.4231927215898936	      2.2660014245527260	     -8.6338756664805505	     -6.5482395732862280	      0.7194480955501529	     -2.0513760511777526	    -13.6191733296722060	     13.3482346040139140	      0.0000000000000000	      0.0000000000000000	     20.7401082670998700	      0.7153581711456131	     -4.3578303878301705	     -7.5701392489739048	     -3.9296752766354990	      0.0000000000000000	      0.0000000000000000	     -6.3564158828736330	      2.0122647422883189	      2.8815081849640487	     -1.4577179569904970	      0.0000000000000000	      0.3430826188666343	     11.1145022212916410	    447.1492844892291000	    -15.8906699267965940	     -1.8628633863423267	      0.0000000000000000	      0.2315694893868097	     -0.0000000000000000	      0.0000000000000000	      0.0000000000000000	      0.0000000000000000	      0.7643010933590420	      0.0000000000000000	      0.0000000000000000	      0.0000000000000000	      0.0000000000000000	
